G04*
G04 #@! TF.GenerationSoftware,Altium Limited,Altium Designer,18.1.11 (251)*
G04*
G04 Layer_Color=8388736*
%FSLAX25Y25*%
%MOIN*%
G70*
G01*
G75*
%ADD15R,0.08556X0.02414*%
%ADD16R,0.10249X0.13792*%
%ADD17R,0.10249X0.04737*%
%ADD18R,0.06706X0.06312*%
%ADD19R,0.06312X0.06706*%
%ADD20R,0.01181X0.02772*%
%ADD21R,0.07099X0.05918*%
%ADD22R,0.02414X0.04698*%
%ADD23R,0.03150X0.07900*%
%ADD24R,0.05524X0.08674*%
%ADD25O,0.05524X0.08674*%
%ADD26O,0.08674X0.05524*%
%ADD27R,0.06902X0.06706*%
%ADD28R,0.06115X0.02375*%
%ADD29R,0.04343X0.06706*%
%ADD30C,0.06706*%
%ADD31R,0.06706X0.06706*%
%ADD32R,0.06706X0.06706*%
%ADD33C,0.03937*%
%ADD34R,0.03937X0.03937*%
%ADD35O,0.06902X0.03851*%
%ADD36O,0.03359X0.05918*%
%ADD37C,0.05800*%
%ADD38C,0.16548*%
G36*
X161327Y179187D02*
Y175788D01*
X152953D01*
Y177613D01*
Y179187D01*
Y181012D01*
X161327D01*
Y179187D01*
D02*
G37*
G36*
X227761Y95195D02*
X227863Y95185D01*
X227965Y95169D01*
X228066Y95147D01*
X228166Y95120D01*
X228264Y95088D01*
X228360Y95052D01*
X228454Y95010D01*
X228546Y94963D01*
X228635Y94911D01*
X228722Y94855D01*
X228805Y94794D01*
X228885Y94730D01*
X228962Y94661D01*
X229035Y94588D01*
X229104Y94511D01*
X229169Y94431D01*
X229229Y94348D01*
X229285Y94261D01*
X229337Y94172D01*
X229384Y94080D01*
X229426Y93986D01*
X229463Y93890D01*
X229494Y93792D01*
X229521Y93692D01*
X229542Y93591D01*
X229559Y93489D01*
X229569Y93387D01*
X229575Y93284D01*
Y93232D01*
Y87721D01*
X222685D01*
Y93232D01*
Y93284D01*
X222690Y93387D01*
X222701Y93489D01*
X222717Y93591D01*
X222739Y93692D01*
X222765Y93792D01*
X222797Y93890D01*
X222834Y93986D01*
X222876Y94080D01*
X222923Y94172D01*
X222974Y94261D01*
X223031Y94348D01*
X223091Y94431D01*
X223156Y94511D01*
X223225Y94588D01*
X223298Y94661D01*
X223375Y94730D01*
X223455Y94794D01*
X223538Y94855D01*
X223625Y94911D01*
X223714Y94963D01*
X223806Y95010D01*
X223900Y95052D01*
X223996Y95088D01*
X224094Y95120D01*
X224194Y95147D01*
X224295Y95169D01*
X224396Y95185D01*
X224499Y95195D01*
X224602Y95201D01*
X227658D01*
X227761Y95195D01*
D02*
G37*
G36*
X229575Y64886D02*
Y64834D01*
X229569Y64731D01*
X229559Y64629D01*
X229542Y64527D01*
X229521Y64426D01*
X229494Y64327D01*
X229463Y64228D01*
X229426Y64132D01*
X229384Y64038D01*
X229337Y63946D01*
X229285Y63857D01*
X229229Y63771D01*
X229169Y63687D01*
X229104Y63607D01*
X229035Y63530D01*
X228962Y63457D01*
X228885Y63389D01*
X228805Y63324D01*
X228722Y63263D01*
X228635Y63207D01*
X228546Y63155D01*
X228454Y63108D01*
X228360Y63067D01*
X228264Y63030D01*
X228166Y62998D01*
X228066Y62971D01*
X227965Y62950D01*
X227863Y62933D01*
X227761Y62923D01*
X227658Y62917D01*
X224602D01*
X224499Y62923D01*
X224396Y62933D01*
X224295Y62950D01*
X224194Y62971D01*
X224094Y62998D01*
X223996Y63030D01*
X223900Y63067D01*
X223806Y63108D01*
X223714Y63155D01*
X223625Y63207D01*
X223538Y63263D01*
X223455Y63324D01*
X223375Y63388D01*
X223298Y63457D01*
X223225Y63530D01*
X223156Y63607D01*
X223091Y63687D01*
X223031Y63771D01*
X222974Y63857D01*
X222923Y63946D01*
X222876Y64038D01*
X222834Y64132D01*
X222797Y64228D01*
X222765Y64327D01*
X222739Y64426D01*
X222717Y64527D01*
X222701Y64629D01*
X222690Y64731D01*
X222685Y64834D01*
Y64886D01*
Y70398D01*
X229575D01*
Y64886D01*
D02*
G37*
%LPC*%
G36*
X159478Y179187D02*
X157903D01*
Y177613D01*
X159478D01*
Y179187D01*
D02*
G37*
G36*
X156378D02*
X154803D01*
Y177613D01*
X156378D01*
Y179187D01*
D02*
G37*
%LPD*%
D15*
X176724Y112750D02*
D03*
Y110250D02*
D03*
Y107750D02*
D03*
Y105250D02*
D03*
Y102750D02*
D03*
Y100250D02*
D03*
Y97750D02*
D03*
Y95250D02*
D03*
Y92750D02*
D03*
Y90250D02*
D03*
X157276D02*
D03*
Y92750D02*
D03*
Y95250D02*
D03*
Y97750D02*
D03*
Y100250D02*
D03*
Y102750D02*
D03*
Y105250D02*
D03*
Y107750D02*
D03*
Y110250D02*
D03*
Y112750D02*
D03*
D16*
X184917Y139000D02*
D03*
D17*
X162083Y129945D02*
D03*
Y139000D02*
D03*
Y148055D02*
D03*
D18*
X63000Y67063D02*
D03*
Y74937D02*
D03*
X144640Y164963D02*
D03*
Y172837D02*
D03*
X192140Y164963D02*
D03*
Y172837D02*
D03*
X203640Y165058D02*
D03*
Y172932D02*
D03*
X169640Y164963D02*
D03*
Y172837D02*
D03*
X180865D02*
D03*
Y164963D02*
D03*
D19*
X51937Y53000D02*
D03*
X44063D02*
D03*
X221937Y51500D02*
D03*
X214063D02*
D03*
X215563Y184500D02*
D03*
X223437D02*
D03*
X44563D02*
D03*
X52437D02*
D03*
X122563Y188000D02*
D03*
X130437D02*
D03*
X98563Y161000D02*
D03*
X106437D02*
D03*
X196315Y84710D02*
D03*
X188441D02*
D03*
X196315Y74710D02*
D03*
X188441D02*
D03*
X188319Y114710D02*
D03*
X196193D02*
D03*
X196315Y94710D02*
D03*
X188441D02*
D03*
X196315Y64710D02*
D03*
X188441D02*
D03*
X196193Y104872D02*
D03*
X188319D02*
D03*
D20*
X161077Y173668D02*
D03*
X159109D02*
D03*
X157140D02*
D03*
X155172D02*
D03*
X153203D02*
D03*
Y183132D02*
D03*
X155172D02*
D03*
X157140D02*
D03*
X159109D02*
D03*
X161077D02*
D03*
D21*
X104500Y59000D02*
D03*
X74000D02*
D03*
X105000Y76000D02*
D03*
X74000D02*
D03*
D22*
X126559Y70222D02*
D03*
X124000D02*
D03*
X121441D02*
D03*
Y62584D02*
D03*
X124000D02*
D03*
X126559D02*
D03*
X143559Y70222D02*
D03*
X141000D02*
D03*
X138441D02*
D03*
Y62584D02*
D03*
X141000D02*
D03*
X143559D02*
D03*
D23*
X161140Y192900D02*
D03*
X153266D02*
D03*
D24*
X66926Y86500D02*
D03*
D25*
X74800D02*
D03*
X82674D02*
D03*
X90548D02*
D03*
X98422D02*
D03*
X106296D02*
D03*
X114170D02*
D03*
X122044D02*
D03*
X66926Y149492D02*
D03*
X74800D02*
D03*
X82674D02*
D03*
X90548D02*
D03*
X98422D02*
D03*
X106296D02*
D03*
X114170D02*
D03*
X122044D02*
D03*
D26*
X127918Y98382D02*
D03*
Y106256D02*
D03*
Y114130D02*
D03*
Y122004D02*
D03*
Y129878D02*
D03*
Y137752D02*
D03*
D27*
X226130Y82996D02*
D03*
Y75122D02*
D03*
D28*
X215500Y84177D02*
D03*
Y81618D02*
D03*
Y79059D02*
D03*
Y76500D02*
D03*
Y73941D02*
D03*
D29*
X212004Y193354D02*
D03*
X224996D02*
D03*
X212004Y212646D02*
D03*
X224996D02*
D03*
X42004Y193354D02*
D03*
X54996D02*
D03*
X42004Y212646D02*
D03*
X54996D02*
D03*
X224996Y42646D02*
D03*
X212004D02*
D03*
X224996Y23354D02*
D03*
X212004D02*
D03*
X54996Y42646D02*
D03*
X42004D02*
D03*
X54996Y23354D02*
D03*
X42004D02*
D03*
D30*
X209500Y132004D02*
D03*
Y122004D02*
D03*
X130500Y174450D02*
D03*
X120500D02*
D03*
X110500D02*
D03*
X100500D02*
D03*
X80500D02*
D03*
X90500D02*
D03*
D31*
X209500Y112004D02*
D03*
D32*
X70500Y174450D02*
D03*
D33*
X218848Y162500D02*
D03*
D34*
Y157500D02*
D03*
D35*
X226130Y92839D02*
D03*
Y65280D02*
D03*
D36*
X215500Y88902D02*
D03*
Y69217D02*
D03*
D37*
X154000Y166000D02*
D03*
X169989Y123500D02*
D03*
X168500Y90181D02*
D03*
X174265Y64890D02*
D03*
X167765Y58474D02*
D03*
X188500Y120972D02*
D03*
X82000Y59500D02*
D03*
X172500Y147500D02*
D03*
X48500Y192500D02*
D03*
X209000Y84500D02*
D03*
X181500Y65000D02*
D03*
X168000Y107000D02*
D03*
X166000Y96500D02*
D03*
X149000Y113500D02*
D03*
X140000Y102000D02*
D03*
X144000Y109500D02*
D03*
Y126000D02*
D03*
X49000Y213000D02*
D03*
X141000Y75500D02*
D03*
X124000Y75000D02*
D03*
X48500Y44000D02*
D03*
X218848D02*
D03*
X218500Y192500D02*
D03*
X219000Y213000D02*
D03*
X218500Y23354D02*
D03*
X121441Y57000D02*
D03*
X60500Y23354D02*
D03*
X42000Y29500D02*
D03*
D38*
X189500Y191000D02*
D03*
Y45000D02*
D03*
X77500D02*
D03*
Y191000D02*
D03*
M02*
