G04*
G04 #@! TF.GenerationSoftware,Altium Limited,Altium Designer,18.1.11 (251)*
G04*
G04 Layer_Color=16711935*
%FSLAX25Y25*%
%MOIN*%
G70*
G01*
G75*
%ADD30C,0.06706*%
%ADD31R,0.06706X0.06706*%
%ADD32R,0.06706X0.06706*%
%ADD33C,0.03937*%
%ADD34R,0.03937X0.03937*%
%ADD35O,0.06902X0.03851*%
%ADD36O,0.03359X0.05918*%
%ADD37C,0.05800*%
%ADD38C,0.16548*%
D30*
X209500Y132004D02*
D03*
Y122004D02*
D03*
X130500Y174450D02*
D03*
X120500D02*
D03*
X110500D02*
D03*
X100500D02*
D03*
X80500D02*
D03*
X90500D02*
D03*
D31*
X209500Y112004D02*
D03*
D32*
X70500Y174450D02*
D03*
D33*
X218848Y162500D02*
D03*
D34*
Y157500D02*
D03*
D35*
X226130Y92839D02*
D03*
Y65280D02*
D03*
D36*
X215500Y88902D02*
D03*
Y69217D02*
D03*
D37*
X154000Y166000D02*
D03*
X169989Y123500D02*
D03*
X168500Y90181D02*
D03*
X174265Y64890D02*
D03*
X167765Y58474D02*
D03*
X188500Y120972D02*
D03*
X82000Y59500D02*
D03*
X172500Y147500D02*
D03*
X48500Y192500D02*
D03*
X209000Y84500D02*
D03*
X181500Y65000D02*
D03*
X168000Y107000D02*
D03*
X166000Y96500D02*
D03*
X149000Y113500D02*
D03*
X140000Y102000D02*
D03*
X144000Y109500D02*
D03*
Y126000D02*
D03*
X49000Y213000D02*
D03*
X141000Y75500D02*
D03*
X124000Y75000D02*
D03*
X48500Y44000D02*
D03*
X218848D02*
D03*
X218500Y192500D02*
D03*
X219000Y213000D02*
D03*
X218500Y23354D02*
D03*
X121441Y57000D02*
D03*
X60500Y23354D02*
D03*
X42000Y29500D02*
D03*
D38*
X189500Y191000D02*
D03*
Y45000D02*
D03*
X77500D02*
D03*
Y191000D02*
D03*
M02*
