G04*
G04 #@! TF.GenerationSoftware,Altium Limited,Altium Designer,18.1.11 (251)*
G04*
G04 Layer_Physical_Order=1*
G04 Layer_Color=255*
%FSLAX25Y25*%
%MOIN*%
G70*
G01*
G75*
%ADD14C,0.01000*%
%ADD20R,0.01181X0.02772*%
%ADD23R,0.03150X0.07900*%
%ADD33C,0.03937*%
%ADD34R,0.03937X0.03937*%
%ADD39R,0.07756X0.01614*%
%ADD40R,0.09449X0.12992*%
%ADD41R,0.09449X0.03937*%
%ADD42R,0.05906X0.05512*%
%ADD43R,0.05512X0.05906*%
%ADD44R,0.07874X0.04724*%
%ADD45R,0.06299X0.05118*%
%ADD46R,0.01614X0.03898*%
%ADD47R,0.04724X0.07874*%
%ADD48O,0.04724X0.07874*%
%ADD49O,0.07874X0.04724*%
%ADD50R,0.06102X0.05906*%
%ADD51R,0.05315X0.01575*%
%ADD52R,0.03543X0.05906*%
%ADD53C,0.02000*%
%ADD54C,0.01500*%
%ADD55C,0.00000*%
%ADD56C,0.05906*%
%ADD57R,0.05906X0.05906*%
%ADD58R,0.05906X0.05906*%
%ADD59O,0.06102X0.03051*%
%ADD60O,0.02559X0.05118*%
%ADD61C,0.05000*%
%ADD62C,0.15748*%
G36*
X209232Y209529D02*
X164000D01*
Y216471D01*
X209232D01*
Y209529D01*
D02*
G37*
G36*
X162980D02*
X57768D01*
Y216471D01*
X162980D01*
Y209529D01*
D02*
G37*
G36*
X231971Y195549D02*
X231471Y195342D01*
X217535Y209277D01*
X217819Y209701D01*
X218086Y209590D01*
X219000Y209470D01*
X219914Y209590D01*
X220765Y209943D01*
X221496Y210504D01*
X221724Y210801D01*
X222224Y210631D01*
Y208693D01*
X227768D01*
Y216471D01*
X231971D01*
Y195549D01*
D02*
G37*
G36*
X219965Y196223D02*
X219681Y195799D01*
X219414Y195910D01*
X218500Y196030D01*
X217586Y195910D01*
X216735Y195557D01*
X216004Y194996D01*
X215443Y194265D01*
X215090Y193414D01*
X214970Y192500D01*
X215090Y191586D01*
X215443Y190735D01*
X216004Y190004D01*
X216735Y189443D01*
X216990Y189337D01*
X217087Y188852D01*
X217419Y188356D01*
X219681Y186093D01*
Y180547D01*
X227193D01*
Y188453D01*
X221647D01*
X220755Y189345D01*
X220788Y189844D01*
X220996Y190004D01*
X221557Y190735D01*
X221724Y191139D01*
X222224Y191039D01*
Y189402D01*
X227768D01*
Y194066D01*
X228230Y194257D01*
X229152Y193335D01*
Y95738D01*
X228997Y95579D01*
X228662Y95452D01*
X228636Y95461D01*
X228615Y95478D01*
X228523Y95524D01*
X228497Y95532D01*
X228475Y95547D01*
X228381Y95589D01*
X228354Y95595D01*
X228331Y95610D01*
X228235Y95647D01*
X228208Y95651D01*
X228185Y95665D01*
X228087Y95696D01*
X228060Y95700D01*
X228036Y95711D01*
X227936Y95738D01*
X227909Y95740D01*
X227885Y95751D01*
X227784Y95772D01*
X227756Y95772D01*
X227731Y95782D01*
X227629Y95798D01*
X227602Y95797D01*
X227576Y95805D01*
X227474Y95816D01*
X227447Y95813D01*
X227420Y95820D01*
X227317Y95825D01*
X227291Y95821D01*
X227264Y95827D01*
X224996D01*
X224969Y95821D01*
X224942Y95825D01*
X224839Y95820D01*
X224813Y95813D01*
X224786Y95816D01*
X224683Y95805D01*
X224658Y95797D01*
X224631Y95798D01*
X224529Y95782D01*
X224503Y95772D01*
X224476Y95772D01*
X224375Y95751D01*
X224351Y95740D01*
X224324Y95738D01*
X224224Y95711D01*
X224200Y95700D01*
X224173Y95696D01*
X224075Y95665D01*
X224051Y95651D01*
X224025Y95647D01*
X223928Y95610D01*
X223905Y95595D01*
X223879Y95589D01*
X223785Y95547D01*
X223763Y95532D01*
X223737Y95524D01*
X223645Y95478D01*
X223623Y95461D01*
X223598Y95452D01*
X223508Y95400D01*
X223488Y95383D01*
X223463Y95373D01*
X223377Y95317D01*
X223357Y95298D01*
X223333Y95286D01*
X223249Y95226D01*
X223231Y95206D01*
X223207Y95193D01*
X223127Y95128D01*
X223109Y95108D01*
X223086Y95094D01*
X223009Y95025D01*
X222993Y95003D01*
X222971Y94988D01*
X222898Y94915D01*
X222441Y95037D01*
X222437Y95040D01*
X222387Y95083D01*
Y110646D01*
X222270Y111232D01*
X221939Y111728D01*
X213159Y120508D01*
X213351Y120972D01*
X213487Y122004D01*
X213351Y123036D01*
X212953Y123997D01*
X212319Y124823D01*
X211493Y125457D01*
X210532Y125855D01*
X209500Y125991D01*
X208468Y125855D01*
X207507Y125457D01*
X206681Y124823D01*
X206047Y123997D01*
X205649Y123036D01*
X205513Y122004D01*
X205649Y120972D01*
X206047Y120010D01*
X206681Y119185D01*
X207507Y118551D01*
X208468Y118153D01*
X209500Y118017D01*
X210532Y118153D01*
X210996Y118345D01*
X212922Y116419D01*
X212731Y115957D01*
X205547D01*
Y108051D01*
X213453D01*
Y115235D01*
X213915Y115426D01*
X219328Y110013D01*
Y92534D01*
X218866Y92343D01*
X217567Y93642D01*
X217071Y93974D01*
X216486Y94090D01*
X205946D01*
X205361Y93974D01*
X204865Y93642D01*
X199886Y88663D01*
X197844D01*
Y90758D01*
X200071D01*
Y98663D01*
X192854D01*
X192647Y99163D01*
X194403Y100919D01*
X199949D01*
Y108825D01*
X196368D01*
X192075Y113117D01*
Y118663D01*
X191705D01*
X191484Y119112D01*
X191557Y119207D01*
X191910Y120058D01*
X192030Y120972D01*
X191910Y121886D01*
X191557Y122737D01*
X190996Y123468D01*
X190265Y124029D01*
X189414Y124382D01*
X188500Y124502D01*
X187586Y124382D01*
X186735Y124029D01*
X186004Y123468D01*
X185443Y122737D01*
X185090Y121886D01*
X184970Y120972D01*
X185090Y120058D01*
X185443Y119207D01*
X185516Y119112D01*
X185295Y118663D01*
X184563D01*
Y110758D01*
X190109D01*
X191580Y109286D01*
X191389Y108825D01*
X184563D01*
Y103279D01*
X182014Y100730D01*
X181602Y101025D01*
Y105943D01*
Y108443D01*
Y110943D01*
Y114557D01*
X177080D01*
X172556Y119081D01*
X172060Y119413D01*
X171474Y119529D01*
X164000D01*
Y136031D01*
X167807D01*
Y141969D01*
X164000D01*
Y145087D01*
X167807D01*
Y145971D01*
X169345D01*
X169443Y145735D01*
X170004Y145004D01*
X170735Y144443D01*
X171586Y144090D01*
X172500Y143970D01*
X173414Y144090D01*
X174265Y144443D01*
X174996Y145004D01*
X175557Y145735D01*
X175910Y146586D01*
X176030Y147500D01*
X175910Y148414D01*
X175557Y149265D01*
X174996Y149996D01*
X174265Y150557D01*
X173414Y150910D01*
X172500Y151030D01*
X171670Y150921D01*
X171376Y151049D01*
X171170Y151187D01*
Y161207D01*
X173593D01*
Y163561D01*
X174072Y163882D01*
X179272Y169081D01*
X184817D01*
Y171308D01*
X188188D01*
Y169081D01*
X196093D01*
Y171308D01*
X199688D01*
Y169176D01*
X207593D01*
Y176687D01*
X199688D01*
Y174366D01*
X196093D01*
Y176593D01*
X188188D01*
Y174366D01*
X184817D01*
Y176593D01*
X176912D01*
Y171047D01*
X174248Y168383D01*
X173689Y168514D01*
X173593Y168719D01*
Y169081D01*
X173593D01*
Y176593D01*
X165688D01*
Y175197D01*
X164000D01*
Y185500D01*
X167000D01*
Y200000D01*
X164000D01*
Y206471D01*
X209717D01*
X219965Y196223D01*
D02*
G37*
G36*
X39232Y208693D02*
X43794D01*
X45568Y206919D01*
X46064Y206587D01*
X46650Y206471D01*
X162980D01*
Y204539D01*
X51150D01*
X50369Y204384D01*
X49708Y203942D01*
X43073Y197307D01*
X39232D01*
Y189402D01*
X40475D01*
Y187059D01*
X40591Y186474D01*
X40807Y186150D01*
Y180547D01*
X48319D01*
Y180547D01*
X48681D01*
Y180547D01*
X56193D01*
Y188453D01*
X54058D01*
X53921Y188934D01*
X54236Y189402D01*
X57768D01*
Y197307D01*
X52224D01*
Y193961D01*
X51724Y193861D01*
X51557Y194265D01*
X50996Y194996D01*
X50265Y195557D01*
X49414Y195910D01*
X48500Y196030D01*
X48236Y195995D01*
X48002Y196469D01*
X51994Y200461D01*
X142961D01*
Y191335D01*
X143116Y190555D01*
X143558Y189893D01*
X147199Y186252D01*
Y185500D01*
X147951D01*
X151290Y182162D01*
X151613Y181946D01*
Y180746D01*
X152203D01*
Y176054D01*
X151613D01*
Y175197D01*
X148593D01*
Y176593D01*
X140688D01*
Y169081D01*
X140688D01*
Y168719D01*
X140688D01*
Y161207D01*
X148593D01*
Y164471D01*
X150845D01*
X150943Y164235D01*
X151504Y163504D01*
X152235Y162943D01*
X153086Y162590D01*
X154000Y162470D01*
X154914Y162590D01*
X155765Y162943D01*
X156496Y163504D01*
X157057Y164235D01*
X157410Y165086D01*
X157530Y166000D01*
X157410Y166914D01*
X157057Y167765D01*
X157023Y167810D01*
X160190Y170977D01*
X160394Y171282D01*
X160699D01*
Y175038D01*
X162077D01*
Y181762D01*
X160699D01*
Y182349D01*
X160785Y182477D01*
X160921Y183160D01*
Y185129D01*
X161292Y185500D01*
X162980D01*
Y175197D01*
X163000Y175099D01*
Y172237D01*
X162980Y172139D01*
Y151024D01*
X156358D01*
Y145087D01*
X162980D01*
Y141969D01*
X163000Y141870D01*
Y136130D01*
X162980Y136031D01*
Y132913D01*
X156358D01*
Y126976D01*
X162980D01*
Y119529D01*
X132462D01*
X132216Y120029D01*
X132430Y120308D01*
X132769Y121126D01*
X132884Y122004D01*
X132769Y122882D01*
X132430Y123699D01*
X132222Y123971D01*
X132468Y124471D01*
X140845D01*
X140943Y124235D01*
X141504Y123504D01*
X142235Y122943D01*
X143086Y122590D01*
X144000Y122470D01*
X144914Y122590D01*
X145765Y122943D01*
X146496Y123504D01*
X147057Y124235D01*
X147410Y125086D01*
X147530Y126000D01*
X147410Y126914D01*
X147057Y127765D01*
X146496Y128496D01*
X145765Y129057D01*
X144914Y129410D01*
X144000Y129530D01*
X143086Y129410D01*
X142235Y129057D01*
X141504Y128496D01*
X140943Y127765D01*
X140845Y127529D01*
X132494D01*
X132273Y127978D01*
X132430Y128182D01*
X132769Y129000D01*
X132884Y129878D01*
X132769Y130756D01*
X132430Y131573D01*
X131891Y132276D01*
X131188Y132815D01*
X130371Y133154D01*
X129493Y133269D01*
X126343D01*
X125466Y133154D01*
X124648Y132815D01*
X123945Y132276D01*
X123406Y131573D01*
X123068Y130756D01*
X122952Y129878D01*
X123068Y129000D01*
X123406Y128182D01*
X123563Y127978D01*
X123342Y127529D01*
X120633D01*
X101530Y146633D01*
X101698Y147040D01*
X101813Y147917D01*
Y151067D01*
X101698Y151945D01*
X101359Y152763D01*
X100820Y153465D01*
X100118Y154004D01*
X99909Y154090D01*
X99835Y154462D01*
X99503Y154958D01*
X96082Y158379D01*
Y176128D01*
X95966Y176714D01*
X95634Y177210D01*
X93836Y179009D01*
X94027Y179471D01*
X128908D01*
Y178069D01*
X128507Y177902D01*
X127681Y177269D01*
X127047Y176443D01*
X126649Y175482D01*
X126513Y174450D01*
X126649Y173418D01*
X127047Y172456D01*
X127681Y171631D01*
X128507Y170997D01*
X129468Y170599D01*
X130500Y170463D01*
X131532Y170599D01*
X132493Y170997D01*
X133319Y171631D01*
X133953Y172456D01*
X134351Y173418D01*
X134487Y174450D01*
X134351Y175482D01*
X133953Y176443D01*
X133319Y177269D01*
X132493Y177902D01*
X131966Y178121D01*
Y181000D01*
Y184047D01*
X134193D01*
Y191953D01*
X126681D01*
Y184047D01*
X128908D01*
Y182529D01*
X81538D01*
X81413Y183029D01*
X82454Y183586D01*
X83805Y184695D01*
X84914Y186046D01*
X85738Y187588D01*
X86246Y189260D01*
X86417Y191000D01*
X86246Y192740D01*
X85738Y194412D01*
X84914Y195954D01*
X83805Y197305D01*
X82454Y198414D01*
X80912Y199238D01*
X79240Y199746D01*
X77500Y199917D01*
X75760Y199746D01*
X74088Y199238D01*
X72546Y198414D01*
X71195Y197305D01*
X70086Y195954D01*
X69262Y194412D01*
X68754Y192740D01*
X68583Y191000D01*
X68754Y189260D01*
X69262Y187588D01*
X70086Y186046D01*
X71195Y184695D01*
X72546Y183586D01*
X73587Y183029D01*
X73462Y182529D01*
X69500D01*
X68915Y182413D01*
X68419Y182081D01*
X58919Y172581D01*
X58587Y172085D01*
X58471Y171500D01*
Y144000D01*
X58587Y143415D01*
X58919Y142919D01*
X81145Y120693D01*
Y91080D01*
X80978Y91012D01*
X80276Y90473D01*
X79737Y89770D01*
X79398Y88952D01*
X79283Y88075D01*
Y84925D01*
X79398Y84048D01*
X79737Y83230D01*
X80276Y82527D01*
X80925Y82029D01*
X80918Y81846D01*
X80784Y81529D01*
X76690D01*
X76556Y81846D01*
X76549Y82029D01*
X77198Y82527D01*
X77737Y83230D01*
X78076Y84048D01*
X78191Y84925D01*
Y88075D01*
X78076Y88952D01*
X77737Y89770D01*
X77198Y90473D01*
X76496Y91012D01*
X75678Y91351D01*
X74800Y91466D01*
X73922Y91351D01*
X73104Y91012D01*
X72402Y90473D01*
X71863Y89770D01*
X71524Y88952D01*
X71409Y88075D01*
Y84925D01*
X71524Y84048D01*
X71863Y83230D01*
X72402Y82527D01*
X73051Y82029D01*
X73044Y81846D01*
X72910Y81529D01*
X72252D01*
X70288Y83493D01*
Y91437D01*
X63564D01*
Y85301D01*
X61919Y83656D01*
X61587Y83159D01*
X61471Y82574D01*
Y78693D01*
X59047D01*
Y71181D01*
X59047Y71181D01*
Y70819D01*
X59047D01*
X59047Y70681D01*
Y63307D01*
X66953D01*
Y66790D01*
X72604Y72441D01*
X78150D01*
Y78471D01*
X86000D01*
X86585Y78587D01*
X87081Y78919D01*
X89796Y81633D01*
X90548Y81534D01*
X91426Y81650D01*
X92244Y81988D01*
X92946Y82527D01*
X93485Y83230D01*
X93824Y84048D01*
X93939Y84925D01*
Y86047D01*
X94029Y86500D01*
X93939Y86953D01*
Y88075D01*
X93824Y88952D01*
X93485Y89770D01*
X92946Y90473D01*
X92244Y91012D01*
X91426Y91351D01*
X90548Y91466D01*
X89670Y91351D01*
X88852Y91012D01*
X88150Y90473D01*
X87611Y89770D01*
X87272Y88952D01*
X87157Y88075D01*
Y84925D01*
X87272Y84048D01*
X87452Y83615D01*
X85366Y81529D01*
X84564D01*
X84430Y81846D01*
X84423Y82029D01*
X85072Y82527D01*
X85611Y83230D01*
X85950Y84048D01*
X86065Y84925D01*
Y88075D01*
X85950Y88952D01*
X85611Y89770D01*
X85072Y90473D01*
X84370Y91012D01*
X84203Y91080D01*
Y116980D01*
X84665Y117172D01*
X100919Y100919D01*
X101415Y100587D01*
X102000Y100471D01*
X123146D01*
X123362Y99971D01*
X123068Y99260D01*
X122952Y98382D01*
X123068Y97504D01*
X123406Y96686D01*
X123945Y95984D01*
X124648Y95445D01*
X125466Y95106D01*
X126343Y94991D01*
X129493D01*
X130371Y95106D01*
X131188Y95445D01*
X131891Y95984D01*
X132430Y96686D01*
X132769Y97504D01*
X132884Y98382D01*
X132769Y99260D01*
X132474Y99971D01*
X132690Y100471D01*
X136845D01*
X136943Y100235D01*
X137504Y99504D01*
X138235Y98943D01*
X139086Y98590D01*
X140000Y98470D01*
X140914Y98590D01*
X141765Y98943D01*
X142496Y99504D01*
X143057Y100235D01*
X143410Y101086D01*
X143530Y102000D01*
X143410Y102914D01*
X143248Y103305D01*
X143526Y103721D01*
X152398D01*
Y100943D01*
Y98443D01*
Y95943D01*
Y93443D01*
Y90943D01*
Y88443D01*
X162153D01*
Y90943D01*
Y95334D01*
X162654Y95433D01*
X162943Y94735D01*
X163000Y94660D01*
Y93123D01*
X162980Y93024D01*
Y68029D01*
X142807D01*
Y72475D01*
X143496Y73004D01*
X144057Y73735D01*
X144410Y74586D01*
X144530Y75500D01*
X144410Y76414D01*
X144057Y77265D01*
X143496Y77996D01*
X142765Y78557D01*
X141914Y78910D01*
X141000Y79030D01*
X140086Y78910D01*
X139235Y78557D01*
X138504Y77996D01*
X137943Y77265D01*
X137590Y76414D01*
X137470Y75500D01*
X137590Y74586D01*
X137825Y74019D01*
X137564Y73482D01*
X137537Y73465D01*
X137386Y73440D01*
X130685Y80141D01*
X130189Y80472D01*
X129604Y80589D01*
X122245D01*
X117561Y85272D01*
Y88075D01*
X117446Y88952D01*
X117107Y89770D01*
X116568Y90473D01*
X115866Y91012D01*
X115048Y91351D01*
X114170Y91466D01*
X113292Y91351D01*
X112475Y91012D01*
X111772Y90473D01*
X111233Y89770D01*
X110894Y88952D01*
X110779Y88075D01*
Y84925D01*
X110894Y84048D01*
X111184Y83349D01*
X110760Y83065D01*
X109596Y84230D01*
X109687Y84925D01*
Y88075D01*
X109572Y88952D01*
X109233Y89770D01*
X108694Y90473D01*
X107992Y91012D01*
X107174Y91351D01*
X106296Y91466D01*
X105418Y91351D01*
X104601Y91012D01*
X103898Y90473D01*
X103359Y89770D01*
X103020Y88952D01*
X102905Y88075D01*
Y84925D01*
X103020Y84048D01*
X103359Y83230D01*
X103898Y82527D01*
X104601Y81988D01*
X105418Y81650D01*
X106296Y81534D01*
X107174Y81650D01*
X107652Y81848D01*
X119634Y69866D01*
Y67273D01*
X125807D01*
Y71975D01*
X126496Y72504D01*
X127057Y73235D01*
X127410Y74086D01*
X127530Y75000D01*
X127410Y75914D01*
X127057Y76765D01*
X126854Y77030D01*
X127101Y77530D01*
X128970D01*
X136634Y69866D01*
Y67273D01*
X138561D01*
X138753Y66811D01*
X137474Y65533D01*
X136634D01*
Y59635D01*
X140248D01*
Y63981D01*
X141238Y64971D01*
X141752D01*
Y59635D01*
X141752Y59635D01*
X141752D01*
X141552Y59215D01*
X139366Y57029D01*
X134571D01*
X128366Y63234D01*
Y65533D01*
X124752D01*
Y59635D01*
X127639D01*
X132856Y54419D01*
X133352Y54087D01*
X133937Y53971D01*
X162980D01*
Y32539D01*
X67986D01*
X57768Y42758D01*
Y46598D01*
X56525D01*
Y49941D01*
X56409Y50526D01*
X56077Y51022D01*
X55693Y51407D01*
Y56953D01*
X48181D01*
Y56953D01*
X47819D01*
Y56953D01*
X40307D01*
Y49047D01*
X42534D01*
Y48437D01*
X42650Y47852D01*
X42981Y47356D01*
X43277Y47060D01*
X43085Y46598D01*
X39232D01*
Y38693D01*
X43794D01*
X54718Y27769D01*
X54526Y27307D01*
X52224D01*
Y19529D01*
X44776D01*
Y27307D01*
X44776Y27307D01*
X44776D01*
X45027Y27695D01*
X45057Y27735D01*
X45410Y28586D01*
X45530Y29500D01*
X45410Y30414D01*
X45057Y31265D01*
X44496Y31996D01*
X43765Y32557D01*
X42914Y32910D01*
X42000Y33030D01*
X41086Y32910D01*
X40235Y32557D01*
X39504Y31996D01*
X38943Y31265D01*
X38590Y30414D01*
X38470Y29500D01*
X38590Y28586D01*
X38943Y27735D01*
X38976Y27692D01*
X39232Y27307D01*
X39232D01*
X39232Y27307D01*
Y19529D01*
X35029D01*
Y216471D01*
X39232D01*
Y208693D01*
D02*
G37*
G36*
X93023Y170838D02*
Y157746D01*
X93140Y157161D01*
X93471Y156665D01*
X96122Y154014D01*
X96089Y153515D01*
X96024Y153465D01*
X95485Y152763D01*
X95146Y151945D01*
X95031Y151067D01*
Y147917D01*
X95146Y147040D01*
X95485Y146222D01*
X96024Y145519D01*
X96726Y144980D01*
X97544Y144642D01*
X98422Y144526D01*
X99208Y144630D01*
X118919Y124919D01*
X119415Y124587D01*
X120000Y124471D01*
X123368D01*
X123614Y123971D01*
X123406Y123699D01*
X123068Y122882D01*
X122952Y122004D01*
X123068Y121126D01*
X123406Y120308D01*
X123620Y120029D01*
X123374Y119529D01*
X106926D01*
X82366Y144089D01*
X82587Y144538D01*
X82674Y144526D01*
X83552Y144642D01*
X84370Y144980D01*
X85072Y145519D01*
X85611Y146222D01*
X85950Y147040D01*
X86065Y147917D01*
Y151067D01*
X85950Y151945D01*
X85611Y152763D01*
X85072Y153465D01*
X84370Y154004D01*
X83552Y154343D01*
X82674Y154458D01*
X81796Y154343D01*
X80978Y154004D01*
X80276Y153465D01*
X79737Y152763D01*
X79398Y151945D01*
X79283Y151067D01*
Y147917D01*
X79294Y147830D01*
X78846Y147609D01*
X78191Y148264D01*
Y151067D01*
X78076Y151945D01*
X77737Y152763D01*
X77198Y153465D01*
X76496Y154004D01*
X76329Y154073D01*
Y158116D01*
X89004Y170791D01*
X89468Y170599D01*
X90500Y170463D01*
X91532Y170599D01*
X92493Y170997D01*
X92575Y171060D01*
X93023Y170838D01*
D02*
G37*
G36*
X87110Y176525D02*
X87047Y176443D01*
X86649Y175482D01*
X86513Y174450D01*
X86649Y173418D01*
X86841Y172954D01*
X73719Y159831D01*
X73387Y159335D01*
X73271Y158750D01*
Y154073D01*
X73104Y154004D01*
X72402Y153465D01*
X71863Y152763D01*
X71524Y151945D01*
X71409Y151067D01*
Y147917D01*
X71420Y147830D01*
X70972Y147609D01*
X70317Y148264D01*
Y151067D01*
X70202Y151945D01*
X69863Y152763D01*
X69324Y153465D01*
X68622Y154004D01*
X68455Y154073D01*
Y160242D01*
X79004Y170791D01*
X79468Y170599D01*
X80500Y170463D01*
X81532Y170599D01*
X82493Y170997D01*
X83319Y171631D01*
X83953Y172456D01*
X84351Y173418D01*
X84487Y174450D01*
X84351Y175482D01*
X83953Y176443D01*
X83890Y176525D01*
X84111Y176973D01*
X86889D01*
X87110Y176525D01*
D02*
G37*
G36*
X165688Y169081D02*
X165688D01*
Y168719D01*
X165688D01*
Y161207D01*
X168111D01*
Y151398D01*
X167807Y151024D01*
X164000D01*
Y172139D01*
X165688D01*
Y169081D01*
D02*
G37*
G36*
X105211Y116919D02*
X105707Y116587D01*
X106292Y116471D01*
X123336D01*
X123557Y116022D01*
X123406Y115825D01*
X123068Y115008D01*
X122952Y114130D01*
X123068Y113252D01*
X123406Y112434D01*
X123565Y112228D01*
X123344Y111779D01*
X106802D01*
X74492Y144089D01*
X74713Y144538D01*
X74800Y144526D01*
X75678Y144642D01*
X76496Y144980D01*
X76865Y145264D01*
X105211Y116919D01*
D02*
G37*
G36*
X146456Y116142D02*
X146484Y115971D01*
X145943Y115265D01*
X145590Y114414D01*
X145470Y113500D01*
X145519Y113128D01*
X145122Y112824D01*
X144914Y112910D01*
X144000Y113030D01*
X143086Y112910D01*
X142235Y112557D01*
X141504Y111996D01*
X140943Y111265D01*
X140590Y110414D01*
X140535Y109992D01*
X140007Y109813D01*
X138488Y111331D01*
X137992Y111663D01*
X137407Y111779D01*
X132492D01*
X132271Y112228D01*
X132430Y112434D01*
X132769Y113252D01*
X132884Y114130D01*
X132769Y115008D01*
X132430Y115825D01*
X132279Y116022D01*
X132500Y116471D01*
X146344D01*
X146456Y116142D01*
D02*
G37*
G36*
X162980Y108836D02*
X162519Y108644D01*
X162331Y108831D01*
X162153Y108950D01*
Y114557D01*
X152398D01*
X152398Y114557D01*
Y114557D01*
X152176Y114979D01*
X152057Y115265D01*
X151516Y115971D01*
X151544Y116142D01*
X151656Y116471D01*
X162980D01*
Y108836D01*
D02*
G37*
G36*
X172292Y115019D02*
X172101Y114557D01*
X171846D01*
Y110943D01*
Y108166D01*
X171346Y108067D01*
X171057Y108765D01*
X170496Y109496D01*
X169765Y110057D01*
X168914Y110410D01*
X168000Y110530D01*
X167086Y110410D01*
X166235Y110057D01*
X165504Y109496D01*
X164943Y108765D01*
X164590Y107914D01*
X164586Y107885D01*
X164049Y107634D01*
X164000Y107665D01*
Y116471D01*
X170841D01*
X172292Y115019D01*
D02*
G37*
G36*
X139568Y105926D02*
X139408Y105452D01*
X139086Y105410D01*
X138235Y105057D01*
X137504Y104496D01*
X136943Y103765D01*
X136845Y103529D01*
X132246D01*
X132022Y104029D01*
X132430Y104560D01*
X132769Y105378D01*
X132884Y106256D01*
X132769Y107134D01*
X132430Y107951D01*
X132223Y108221D01*
X132470Y108721D01*
X136773D01*
X139568Y105926D01*
D02*
G37*
G36*
X66547Y175231D02*
Y170497D01*
X70367D01*
X70500Y170471D01*
X70633Y170497D01*
X73731D01*
X73922Y170035D01*
X65845Y161957D01*
X65513Y161461D01*
X65397Y160876D01*
Y154073D01*
X65230Y154004D01*
X64528Y153465D01*
X63989Y152763D01*
X63650Y151945D01*
X63535Y151067D01*
Y147917D01*
X63650Y147040D01*
X63989Y146222D01*
X64528Y145519D01*
X65230Y144980D01*
X66048Y144642D01*
X66926Y144526D01*
X67804Y144642D01*
X68622Y144980D01*
X68991Y145264D01*
X105087Y109169D01*
X105583Y108837D01*
X106168Y108721D01*
X123366D01*
X123613Y108221D01*
X123406Y107951D01*
X123068Y107134D01*
X122952Y106256D01*
X123068Y105378D01*
X123406Y104560D01*
X123814Y104029D01*
X123591Y103529D01*
X102634D01*
X83755Y122407D01*
X61529Y144633D01*
Y170867D01*
X66085Y175422D01*
X66547Y175231D01*
D02*
G37*
G36*
X170169Y96669D02*
X170665Y96337D01*
X171250Y96221D01*
X171846D01*
Y93443D01*
Y90943D01*
Y88443D01*
X175195D01*
Y86427D01*
X175311Y85842D01*
X175643Y85345D01*
X184685Y76303D01*
Y70758D01*
X192197D01*
Y70758D01*
X192559D01*
Y70758D01*
X194786D01*
Y68663D01*
X192697D01*
X192559Y68663D01*
X192197D01*
X192059Y68663D01*
X184685D01*
Y67420D01*
X184185Y67250D01*
X183996Y67496D01*
X183265Y68057D01*
X182414Y68410D01*
X181500Y68530D01*
X180586Y68410D01*
X179735Y68057D01*
X179004Y67496D01*
X178443Y66765D01*
X178090Y65914D01*
X177970Y65000D01*
X178090Y64086D01*
X178443Y63235D01*
X179004Y62504D01*
X179735Y61943D01*
X180586Y61590D01*
X181500Y61470D01*
X182414Y61590D01*
X183265Y61943D01*
X183996Y62504D01*
X184185Y62750D01*
X184685Y62580D01*
Y60758D01*
X192059D01*
X192197Y60758D01*
X192559D01*
X192697Y60758D01*
X200071D01*
Y68663D01*
X197844D01*
Y70758D01*
X200071D01*
Y76303D01*
X201297Y77530D01*
X211842D01*
Y74713D01*
X219158D01*
X219328Y74283D01*
Y70563D01*
X218286Y69521D01*
X217824Y69712D01*
Y70496D01*
X217647Y71386D01*
X217143Y72140D01*
X216389Y72643D01*
X215500Y72820D01*
X214611Y72643D01*
X213857Y72140D01*
X213353Y71386D01*
X213176Y70496D01*
Y67937D01*
X213353Y67048D01*
X213857Y66294D01*
X214250Y66031D01*
X214299Y65533D01*
X205736Y56970D01*
X178004D01*
X167393Y67581D01*
X166897Y67913D01*
X166311Y68029D01*
X164000D01*
Y93024D01*
X164500Y93333D01*
X165086Y93090D01*
X166000Y92970D01*
X166914Y93090D01*
X167765Y93443D01*
X168496Y94004D01*
X169057Y94735D01*
X169410Y95586D01*
X169530Y96500D01*
X169515Y96615D01*
X169989Y96848D01*
X170169Y96669D01*
D02*
G37*
G36*
X227367Y94802D02*
X227470Y94791D01*
X227571Y94775D01*
X227672Y94753D01*
X227772Y94727D01*
X227870Y94695D01*
X227966Y94658D01*
X228060Y94616D01*
X228152Y94569D01*
X228241Y94518D01*
X228328Y94462D01*
X228411Y94401D01*
X228491Y94336D01*
X228568Y94267D01*
X228641Y94194D01*
X228710Y94117D01*
X228775Y94037D01*
X228835Y93954D01*
X228892Y93867D01*
X228943Y93778D01*
X228990Y93686D01*
X229032Y93592D01*
X229069Y93496D01*
X229101Y93398D01*
X229127Y93298D01*
X229149Y93198D01*
X229165Y93096D01*
X229176Y92993D01*
X229181Y92890D01*
Y92839D01*
Y88114D01*
X223079D01*
Y92839D01*
Y92890D01*
X223084Y92993D01*
X223095Y93096D01*
X223111Y93198D01*
X223132Y93298D01*
X223159Y93398D01*
X223191Y93496D01*
X223228Y93592D01*
X223270Y93686D01*
X223317Y93778D01*
X223368Y93867D01*
X223424Y93954D01*
X223485Y94037D01*
X223550Y94117D01*
X223619Y94194D01*
X223692Y94267D01*
X223768Y94336D01*
X223849Y94401D01*
X223932Y94461D01*
X224018Y94518D01*
X224108Y94569D01*
X224200Y94616D01*
X224294Y94658D01*
X224390Y94695D01*
X224488Y94727D01*
X224587Y94753D01*
X224688Y94775D01*
X224790Y94791D01*
X224893Y94802D01*
X224996Y94807D01*
X227264D01*
X227367Y94802D01*
D02*
G37*
G36*
X213268Y90645D02*
X213176Y90181D01*
Y87622D01*
X213353Y86733D01*
X213532Y86465D01*
X213265Y85965D01*
X212182D01*
X212057Y86265D01*
X211496Y86996D01*
X210765Y87557D01*
X209914Y87910D01*
X209000Y88030D01*
X208086Y87910D01*
X207235Y87557D01*
X206504Y86996D01*
X205943Y86265D01*
X205590Y85414D01*
X205470Y84500D01*
X205590Y83586D01*
X205943Y82735D01*
X206504Y82004D01*
X207235Y81443D01*
X208086Y81090D01*
X208099Y81089D01*
X208066Y80589D01*
X200664D01*
X200486Y80553D01*
X200071Y80980D01*
Y84522D01*
X206580Y91031D01*
X212951D01*
X213268Y90645D01*
D02*
G37*
G36*
X120530Y77978D02*
X121001Y77662D01*
X121029Y77637D01*
X121201Y77101D01*
X120943Y76765D01*
X120590Y75914D01*
X120470Y75000D01*
X120590Y74086D01*
X120692Y73841D01*
X120268Y73558D01*
X112310Y81515D01*
X112593Y81939D01*
X113292Y81650D01*
X114170Y81534D01*
X115048Y81650D01*
X115866Y81988D01*
X116235Y82272D01*
X120530Y77978D01*
D02*
G37*
G36*
X184685Y87604D02*
Y81336D01*
X184185Y81129D01*
X178254Y87060D01*
Y88443D01*
X181602D01*
Y90034D01*
X182064Y90225D01*
X184685Y87604D01*
D02*
G37*
G36*
X199758Y80258D02*
X199582Y80141D01*
X198105Y78663D01*
X192559D01*
Y78663D01*
X192197D01*
Y78663D01*
X186651D01*
X185057Y80258D01*
X185264Y80758D01*
X192197D01*
Y80758D01*
X192559D01*
Y80758D01*
X199606D01*
X199758Y80258D01*
D02*
G37*
G36*
X69545Y79910D02*
X69850Y79559D01*
X69850D01*
X69850Y79559D01*
Y74013D01*
X67453Y71616D01*
X66953Y71823D01*
Y78693D01*
X64529D01*
Y81563D01*
X67892D01*
X69545Y79910D01*
D02*
G37*
G36*
X229181Y65280D02*
Y65228D01*
X229176Y65125D01*
X229165Y65022D01*
X229149Y64921D01*
X229127Y64820D01*
X229101Y64720D01*
X229069Y64622D01*
X229032Y64526D01*
X228990Y64432D01*
X228943Y64340D01*
X228892Y64251D01*
X228836Y64164D01*
X228775Y64081D01*
X228710Y64001D01*
X228641Y63924D01*
X228568Y63851D01*
X228491Y63782D01*
X228411Y63717D01*
X228328Y63657D01*
X228241Y63601D01*
X228152Y63549D01*
X228060Y63502D01*
X227966Y63460D01*
X227870Y63423D01*
X227772Y63392D01*
X227672Y63365D01*
X227572Y63343D01*
X227470Y63327D01*
X227367Y63316D01*
X227264Y63311D01*
X224996D01*
X224893Y63316D01*
X224790Y63327D01*
X224688Y63343D01*
X224588Y63365D01*
X224488Y63392D01*
X224390Y63423D01*
X224294Y63460D01*
X224200Y63502D01*
X224108Y63549D01*
X224018Y63600D01*
X223932Y63657D01*
X223849Y63717D01*
X223768Y63782D01*
X223692Y63851D01*
X223619Y63924D01*
X223550Y64001D01*
X223485Y64081D01*
X223424Y64164D01*
X223368Y64251D01*
X223317Y64340D01*
X223270Y64432D01*
X223228Y64526D01*
X223191Y64622D01*
X223159Y64720D01*
X223132Y64820D01*
X223111Y64921D01*
X223095Y65022D01*
X223084Y65125D01*
X223079Y65228D01*
Y65280D01*
Y70004D01*
X229181D01*
Y65280D01*
D02*
G37*
G36*
X162980Y57029D02*
X144346D01*
X144154Y57491D01*
X144641Y57978D01*
X144972Y58474D01*
X145088Y59059D01*
Y59635D01*
X145366D01*
Y64971D01*
X162980D01*
Y57029D01*
D02*
G37*
G36*
X52224Y42539D02*
Y38693D01*
X56065D01*
X64767Y29991D01*
X64575Y29529D01*
X57283D01*
X45725Y41087D01*
X46056Y41464D01*
X46735Y40943D01*
X47586Y40590D01*
X48500Y40470D01*
X49414Y40590D01*
X50265Y40943D01*
X50996Y41504D01*
X51557Y42235D01*
X51724Y42638D01*
X52224Y42539D01*
D02*
G37*
G36*
X222059Y68261D02*
Y65430D01*
X222029Y65280D01*
X222064Y65104D01*
X222066Y65072D01*
X222073Y65045D01*
X222070Y65018D01*
X222081Y64916D01*
X222089Y64890D01*
X222088Y64863D01*
X222104Y64761D01*
X222113Y64736D01*
X222114Y64709D01*
X222135Y64608D01*
X222146Y64583D01*
X222148Y64556D01*
X222174Y64456D01*
X222186Y64432D01*
X222189Y64405D01*
X222221Y64307D01*
X222223Y64303D01*
X222225Y64294D01*
X222235Y64279D01*
X222239Y64257D01*
X222276Y64161D01*
X222290Y64138D01*
X222297Y64111D01*
X222339Y64017D01*
X222354Y63995D01*
X222361Y63969D01*
X222408Y63877D01*
X222425Y63856D01*
X222434Y63830D01*
X222485Y63741D01*
X222503Y63721D01*
X222513Y63695D01*
X222569Y63609D01*
X222588Y63590D01*
X222599Y63565D01*
X222660Y63482D01*
X222680Y63463D01*
X222693Y63439D01*
X222758Y63359D01*
X222778Y63342D01*
X222792Y63318D01*
X222861Y63242D01*
X222883Y63226D01*
X222898Y63203D01*
X222971Y63130D01*
X222993Y63115D01*
X223009Y63094D01*
X223086Y63025D01*
X223110Y63011D01*
X223127Y62990D01*
X223207Y62925D01*
X223231Y62912D01*
X223249Y62893D01*
X223332Y62832D01*
X223357Y62821D01*
X223377Y62801D01*
X223463Y62745D01*
X223488Y62735D01*
X223509Y62717D01*
X223598Y62666D01*
X223623Y62657D01*
X223645Y62641D01*
X223737Y62594D01*
X223763Y62586D01*
X223785Y62571D01*
X223879Y62529D01*
X223905Y62523D01*
X223928Y62508D01*
X224025Y62471D01*
X224051Y62467D01*
X224075Y62454D01*
X224173Y62422D01*
X224200Y62419D01*
X224224Y62407D01*
X224324Y62380D01*
X224351Y62378D01*
X224375Y62367D01*
X224476Y62346D01*
X224503Y62346D01*
X224529Y62336D01*
X224631Y62320D01*
X224658Y62321D01*
X224683Y62313D01*
X224786Y62302D01*
X224813Y62305D01*
X224839Y62298D01*
X224942Y62293D01*
X224969Y62297D01*
X224996Y62291D01*
X227264D01*
X227291Y62297D01*
X227318Y62293D01*
X227420Y62298D01*
X227447Y62305D01*
X227474Y62302D01*
X227576Y62313D01*
X227602Y62321D01*
X227629Y62320D01*
X227731Y62336D01*
X227756Y62346D01*
X227784Y62346D01*
X227885Y62367D01*
X227909Y62378D01*
X227936Y62380D01*
X228036Y62407D01*
X228060Y62419D01*
X228087Y62422D01*
X228185Y62454D01*
X228208Y62467D01*
X228235Y62471D01*
X228331Y62508D01*
X228354Y62523D01*
X228381Y62529D01*
X228475Y62571D01*
X228497Y62586D01*
X228523Y62594D01*
X228615Y62641D01*
X228637Y62657D01*
X228662Y62666D01*
X228997Y62539D01*
X229152Y62380D01*
Y42684D01*
X226590Y40122D01*
X219876D01*
X219762Y40590D01*
X220613Y40943D01*
X221344Y41504D01*
X221905Y42235D01*
X222258Y43086D01*
X222378Y44000D01*
X222258Y44914D01*
X221905Y45765D01*
X221344Y46496D01*
X220613Y47057D01*
X219762Y47410D01*
X218848Y47530D01*
X218281Y47455D01*
X217819Y47877D01*
Y55453D01*
X210307D01*
Y47547D01*
X213138D01*
X213625Y47060D01*
X213434Y46598D01*
X209232D01*
Y38693D01*
X214644D01*
X215826Y37512D01*
X216322Y37180D01*
X216907Y37064D01*
X227223D01*
X227809Y37180D01*
X228305Y37512D01*
X231471Y40677D01*
X231971Y40470D01*
Y19529D01*
X227768D01*
Y27307D01*
X223206D01*
X221432Y29081D01*
X220936Y29413D01*
X220350Y29529D01*
X164000D01*
Y64971D01*
X165678D01*
X176289Y54360D01*
X176785Y54028D01*
X177371Y53912D01*
X186585D01*
X186659Y53412D01*
X186088Y53238D01*
X184546Y52414D01*
X183195Y51305D01*
X182086Y49954D01*
X181262Y48412D01*
X180754Y46740D01*
X180583Y45000D01*
X180754Y43260D01*
X181262Y41588D01*
X182086Y40046D01*
X183195Y38695D01*
X184546Y37586D01*
X186088Y36762D01*
X187760Y36254D01*
X189500Y36083D01*
X191240Y36254D01*
X192912Y36762D01*
X194454Y37586D01*
X195805Y38695D01*
X196914Y40046D01*
X197738Y41588D01*
X198246Y43260D01*
X198417Y45000D01*
X198246Y46740D01*
X197738Y48412D01*
X196914Y49954D01*
X195805Y51305D01*
X194454Y52414D01*
X192912Y53238D01*
X192341Y53412D01*
X192415Y53912D01*
X206369D01*
X206954Y54028D01*
X207451Y54360D01*
X221559Y68468D01*
X222059Y68261D01*
D02*
G37*
G36*
X209232Y19529D02*
X164000D01*
Y26471D01*
X209232D01*
Y19529D01*
D02*
G37*
G36*
X162980D02*
X61718D01*
X61619Y20029D01*
X62265Y20297D01*
X62996Y20858D01*
X63557Y21589D01*
X63910Y22441D01*
X64030Y23354D01*
X63910Y24268D01*
X63557Y25119D01*
X62996Y25851D01*
X62840Y25971D01*
X63010Y26471D01*
X162980D01*
Y19529D01*
D02*
G37*
%LPC*%
G36*
X189500Y199917D02*
X187760Y199746D01*
X186088Y199238D01*
X184546Y198414D01*
X183195Y197305D01*
X182086Y195954D01*
X181262Y194412D01*
X180754Y192740D01*
X180583Y191000D01*
X180754Y189260D01*
X181262Y187588D01*
X182086Y186046D01*
X183195Y184695D01*
X184546Y183586D01*
X186088Y182762D01*
X187760Y182254D01*
X189500Y182083D01*
X191240Y182254D01*
X192912Y182762D01*
X194454Y183586D01*
X195805Y184695D01*
X196914Y186046D01*
X197738Y187588D01*
X198246Y189260D01*
X198417Y191000D01*
X198246Y192740D01*
X197738Y194412D01*
X196914Y195954D01*
X195805Y197305D01*
X194454Y198414D01*
X192912Y199238D01*
X191240Y199746D01*
X189500Y199917D01*
D02*
G37*
G36*
X221817Y160468D02*
X215880D01*
Y154532D01*
X221817D01*
Y160468D01*
D02*
G37*
G36*
X190642Y146496D02*
X179193D01*
Y131504D01*
X190642D01*
Y146496D01*
D02*
G37*
G36*
X110500Y178437D02*
X109468Y178301D01*
X108507Y177902D01*
X107681Y177269D01*
X107047Y176443D01*
X106649Y175482D01*
X106513Y174450D01*
X106649Y173418D01*
X107047Y172456D01*
X107681Y171631D01*
X108507Y170997D01*
X109468Y170599D01*
X110500Y170463D01*
X111532Y170599D01*
X112493Y170997D01*
X113319Y171631D01*
X113953Y172456D01*
X114351Y173418D01*
X114487Y174450D01*
X114351Y175482D01*
X113953Y176443D01*
X113319Y177269D01*
X112493Y177902D01*
X111532Y178301D01*
X110500Y178437D01*
D02*
G37*
G36*
X120500D02*
X119468Y178301D01*
X118507Y177902D01*
X117681Y177269D01*
X117047Y176443D01*
X116649Y175482D01*
X116513Y174450D01*
X116649Y173418D01*
X117047Y172456D01*
X117681Y171631D01*
X118507Y170997D01*
X119468Y170599D01*
X120500Y170463D01*
X120515Y170450D01*
Y154073D01*
X120349Y154004D01*
X119646Y153465D01*
X119107Y152763D01*
X118769Y151945D01*
X118653Y151067D01*
Y151022D01*
X117561D01*
Y151067D01*
X117446Y151945D01*
X117107Y152763D01*
X116568Y153465D01*
X115866Y154004D01*
X115048Y154343D01*
X114170Y154458D01*
X113292Y154343D01*
X112475Y154004D01*
X111772Y153465D01*
X111233Y152763D01*
X110894Y151945D01*
X110779Y151067D01*
Y147917D01*
X110894Y147040D01*
X111233Y146222D01*
X111772Y145519D01*
X112475Y144980D01*
X113292Y144642D01*
X114170Y144526D01*
X115048Y144642D01*
X115866Y144980D01*
X116568Y145519D01*
X117107Y146222D01*
X117446Y147040D01*
X117561Y147917D01*
Y147963D01*
X118653D01*
Y147917D01*
X118769Y147040D01*
X119107Y146222D01*
X119646Y145519D01*
X120349Y144980D01*
X121166Y144642D01*
X122044Y144526D01*
X122922Y144642D01*
X123740Y144980D01*
X124442Y145519D01*
X124981Y146222D01*
X125320Y147040D01*
X125435Y147917D01*
Y151067D01*
X125320Y151945D01*
X124981Y152763D01*
X124442Y153465D01*
X123740Y154004D01*
X123574Y154073D01*
Y171962D01*
X123953Y172456D01*
X124351Y173418D01*
X124487Y174450D01*
X124351Y175482D01*
X123953Y176443D01*
X123319Y177269D01*
X122493Y177902D01*
X121532Y178301D01*
X120500Y178437D01*
D02*
G37*
G36*
X110193Y164953D02*
X102681D01*
Y157047D01*
X104767D01*
Y154073D01*
X104601Y154004D01*
X103898Y153465D01*
X103359Y152763D01*
X103020Y151945D01*
X102905Y151067D01*
Y147917D01*
X103020Y147040D01*
X103359Y146222D01*
X103898Y145519D01*
X104601Y144980D01*
X105418Y144642D01*
X106296Y144526D01*
X107174Y144642D01*
X107992Y144980D01*
X108694Y145519D01*
X109233Y146222D01*
X109572Y147040D01*
X109687Y147917D01*
Y151067D01*
X109572Y151945D01*
X109233Y152763D01*
X108694Y153465D01*
X107992Y154004D01*
X107826Y154073D01*
Y157047D01*
X110193D01*
Y164953D01*
D02*
G37*
G36*
X129493Y141143D02*
X126343D01*
X125466Y141028D01*
X124648Y140689D01*
X123945Y140150D01*
X123406Y139448D01*
X123068Y138630D01*
X122952Y137752D01*
X123068Y136874D01*
X123406Y136056D01*
X123945Y135354D01*
X124648Y134815D01*
X125466Y134476D01*
X126343Y134361D01*
X129493D01*
X130371Y134476D01*
X131188Y134815D01*
X131891Y135354D01*
X132430Y136056D01*
X132769Y136874D01*
X132884Y137752D01*
X132769Y138630D01*
X132430Y139448D01*
X131891Y140150D01*
X131188Y140689D01*
X130371Y141028D01*
X129493Y141143D01*
D02*
G37*
G36*
X98422Y91466D02*
X97544Y91351D01*
X96727Y91012D01*
X96024Y90473D01*
X95485Y89770D01*
X95146Y88952D01*
X95031Y88075D01*
Y84925D01*
X95146Y84048D01*
X95485Y83230D01*
X96024Y82527D01*
X96727Y81988D01*
X97544Y81650D01*
X98422Y81534D01*
X99300Y81650D01*
X100118Y81988D01*
X100820Y82527D01*
X101359Y83230D01*
X101698Y84048D01*
X101813Y84925D01*
Y88075D01*
X101698Y88952D01*
X101359Y89770D01*
X100820Y90473D01*
X100118Y91012D01*
X99300Y91351D01*
X98422Y91466D01*
D02*
G37*
G36*
X109150Y79559D02*
X100850D01*
Y72441D01*
X109150D01*
Y79559D01*
D02*
G37*
G36*
X82000Y63030D02*
X81086Y62910D01*
X80235Y62557D01*
X79504Y61996D01*
X78943Y61265D01*
X78638Y60529D01*
X78150D01*
Y62559D01*
X69850D01*
Y55441D01*
X78150D01*
Y57471D01*
X79146D01*
X79504Y57004D01*
X80235Y56443D01*
X81086Y56090D01*
X82000Y55970D01*
X82914Y56090D01*
X83765Y56443D01*
X84496Y57004D01*
X85057Y57735D01*
X85410Y58586D01*
X85530Y59500D01*
X85410Y60414D01*
X85057Y61265D01*
X84496Y61996D01*
X83765Y62557D01*
X82914Y62910D01*
X82000Y63030D01*
D02*
G37*
G36*
X108650Y62559D02*
X100350D01*
Y55441D01*
X108650D01*
Y62559D01*
D02*
G37*
G36*
X123248Y65533D02*
X119634D01*
Y60025D01*
X118945Y59496D01*
X118384Y58765D01*
X118031Y57914D01*
X117911Y57000D01*
X118031Y56086D01*
X118384Y55235D01*
X118945Y54504D01*
X119676Y53943D01*
X120527Y53590D01*
X121441Y53470D01*
X122355Y53590D01*
X123206Y53943D01*
X123937Y54504D01*
X124498Y55235D01*
X124851Y56086D01*
X124971Y57000D01*
X124851Y57914D01*
X124498Y58765D01*
X123937Y59496D01*
X123248Y60025D01*
Y65533D01*
D02*
G37*
G36*
X77500Y53917D02*
X75760Y53746D01*
X74088Y53238D01*
X72546Y52414D01*
X71195Y51305D01*
X70086Y49954D01*
X69262Y48412D01*
X68754Y46740D01*
X68583Y45000D01*
X68754Y43260D01*
X69262Y41588D01*
X70086Y40046D01*
X71195Y38695D01*
X72546Y37586D01*
X74088Y36762D01*
X75760Y36254D01*
X77500Y36083D01*
X79240Y36254D01*
X80912Y36762D01*
X82454Y37586D01*
X83805Y38695D01*
X84914Y40046D01*
X85738Y41588D01*
X86246Y43260D01*
X86417Y45000D01*
X86246Y46740D01*
X85738Y48412D01*
X84914Y49954D01*
X83805Y51305D01*
X82454Y52414D01*
X80912Y53238D01*
X79240Y53746D01*
X77500Y53917D01*
D02*
G37*
G36*
X90548Y154458D02*
X89670Y154343D01*
X88852Y154004D01*
X88150Y153465D01*
X87611Y152763D01*
X87272Y151945D01*
X87157Y151067D01*
Y147917D01*
X87272Y147040D01*
X87611Y146222D01*
X88150Y145519D01*
X88852Y144980D01*
X89670Y144642D01*
X90548Y144526D01*
X91426Y144642D01*
X92244Y144980D01*
X92946Y145519D01*
X93485Y146222D01*
X93824Y147040D01*
X93939Y147917D01*
Y151067D01*
X93824Y151945D01*
X93485Y152763D01*
X92946Y153465D01*
X92244Y154004D01*
X91426Y154343D01*
X90548Y154458D01*
D02*
G37*
G36*
X227435Y93823D02*
X224825D01*
X224773Y93820D01*
X224722Y93815D01*
X224671Y93807D01*
X224621Y93796D01*
X224571Y93783D01*
X224522Y93767D01*
X224474Y93748D01*
X224427Y93727D01*
X224381Y93704D01*
X224336Y93678D01*
X224293Y93650D01*
X224251Y93620D01*
X224211Y93587D01*
X224173Y93553D01*
X224136Y93516D01*
X224102Y93478D01*
X224069Y93438D01*
X224039Y93396D01*
X224011Y93353D01*
X223985Y93308D01*
X223962Y93262D01*
X223941Y93215D01*
X223922Y93167D01*
X223906Y93118D01*
X223893Y93068D01*
X223882Y93018D01*
X223874Y92967D01*
X223869Y92916D01*
X223866Y92864D01*
Y92839D01*
Y92813D01*
X223869Y92761D01*
X223874Y92710D01*
X223882Y92659D01*
X223893Y92609D01*
X223906Y92559D01*
X223922Y92510D01*
X223941Y92462D01*
X223962Y92415D01*
X223985Y92369D01*
X224011Y92324D01*
X224039Y92281D01*
X224069Y92239D01*
X224102Y92199D01*
X224136Y92161D01*
X224173Y92124D01*
X224211Y92090D01*
X224251Y92057D01*
X224293Y92027D01*
X224336Y91999D01*
X224381Y91973D01*
X224427Y91950D01*
X224474Y91929D01*
X224522Y91910D01*
X224571Y91895D01*
X224621Y91881D01*
X224671Y91870D01*
X224722Y91862D01*
X224773Y91857D01*
X224825Y91854D01*
X227435D01*
X227487Y91857D01*
X227538Y91862D01*
X227589Y91870D01*
X227639Y91881D01*
X227689Y91895D01*
X227738Y91910D01*
X227786Y91929D01*
X227833Y91950D01*
X227879Y91973D01*
X227924Y91999D01*
X227967Y92027D01*
X228009Y92057D01*
X228049Y92090D01*
X228087Y92124D01*
X228124Y92161D01*
X228158Y92199D01*
X228191Y92239D01*
X228221Y92281D01*
X228249Y92324D01*
X228275Y92369D01*
X228298Y92415D01*
X228319Y92462D01*
X228338Y92510D01*
X228354Y92559D01*
X228367Y92609D01*
X228378Y92659D01*
X228386Y92710D01*
X228391Y92761D01*
X228394Y92813D01*
Y92839D01*
Y92864D01*
X228391Y92916D01*
X228386Y92967D01*
X228378Y93018D01*
X228367Y93068D01*
X228354Y93118D01*
X228338Y93167D01*
X228319Y93215D01*
X228298Y93262D01*
X228275Y93308D01*
X228249Y93353D01*
X228221Y93396D01*
X228191Y93438D01*
X228158Y93478D01*
X228124Y93516D01*
X228087Y93553D01*
X228049Y93587D01*
X228009Y93620D01*
X227967Y93650D01*
X227924Y93678D01*
X227879Y93704D01*
X227833Y93727D01*
X227786Y93748D01*
X227738Y93767D01*
X227689Y93783D01*
X227639Y93796D01*
X227589Y93807D01*
X227538Y93815D01*
X227487Y93820D01*
X227435Y93823D01*
D02*
G37*
G36*
X227435Y66264D02*
X224825D01*
X224773Y66261D01*
X224722Y66256D01*
X224671Y66248D01*
X224621Y66237D01*
X224571Y66224D01*
X224522Y66208D01*
X224474Y66189D01*
X224427Y66168D01*
X224381Y66145D01*
X224336Y66119D01*
X224293Y66091D01*
X224251Y66061D01*
X224211Y66028D01*
X224173Y65994D01*
X224136Y65957D01*
X224102Y65919D01*
X224069Y65879D01*
X224039Y65837D01*
X224011Y65794D01*
X223985Y65749D01*
X223962Y65703D01*
X223941Y65656D01*
X223922Y65608D01*
X223906Y65559D01*
X223893Y65509D01*
X223882Y65459D01*
X223874Y65408D01*
X223869Y65357D01*
X223866Y65305D01*
Y65280D01*
Y65254D01*
X223869Y65202D01*
X223874Y65151D01*
X223882Y65100D01*
X223893Y65050D01*
X223906Y65000D01*
X223922Y64951D01*
X223941Y64903D01*
X223962Y64856D01*
X223985Y64810D01*
X224011Y64765D01*
X224039Y64722D01*
X224069Y64680D01*
X224102Y64640D01*
X224136Y64602D01*
X224173Y64565D01*
X224211Y64531D01*
X224251Y64498D01*
X224293Y64468D01*
X224336Y64440D01*
X224381Y64414D01*
X224427Y64391D01*
X224474Y64370D01*
X224522Y64351D01*
X224571Y64336D01*
X224621Y64322D01*
X224671Y64311D01*
X224722Y64303D01*
X224773Y64298D01*
X224825Y64295D01*
X227435D01*
X227487Y64298D01*
X227538Y64303D01*
X227589Y64311D01*
X227639Y64322D01*
X227689Y64336D01*
X227738Y64351D01*
X227786Y64370D01*
X227833Y64391D01*
X227879Y64414D01*
X227924Y64440D01*
X227967Y64468D01*
X228009Y64498D01*
X228049Y64531D01*
X228087Y64565D01*
X228124Y64602D01*
X228158Y64640D01*
X228191Y64680D01*
X228221Y64722D01*
X228249Y64765D01*
X228275Y64810D01*
X228298Y64856D01*
X228319Y64903D01*
X228338Y64951D01*
X228354Y65000D01*
X228367Y65050D01*
X228378Y65100D01*
X228386Y65151D01*
X228391Y65202D01*
X228394Y65254D01*
Y65280D01*
Y65305D01*
X228391Y65357D01*
X228386Y65408D01*
X228378Y65459D01*
X228367Y65509D01*
X228354Y65559D01*
X228338Y65608D01*
X228319Y65656D01*
X228298Y65703D01*
X228275Y65749D01*
X228249Y65794D01*
X228221Y65837D01*
X228191Y65879D01*
X228158Y65919D01*
X228124Y65957D01*
X228087Y65994D01*
X228049Y66028D01*
X228009Y66061D01*
X227967Y66091D01*
X227924Y66119D01*
X227879Y66145D01*
X227833Y66168D01*
X227786Y66189D01*
X227738Y66208D01*
X227689Y66224D01*
X227639Y66237D01*
X227589Y66248D01*
X227538Y66256D01*
X227487Y66261D01*
X227435Y66264D01*
D02*
G37*
%LPD*%
D14*
X188319Y114710D02*
Y120972D01*
X159109Y172059D02*
Y173668D01*
X154000Y166950D02*
X159109Y172059D01*
X154000Y166000D02*
Y166950D01*
X169500Y147500D02*
X172500D01*
X162638D02*
X169500D01*
X169640Y147640D01*
Y164963D01*
X145177Y166000D02*
X154000D01*
X144640Y165463D02*
X145177Y166000D01*
X160987Y182408D02*
Y183132D01*
Y182408D02*
X162177Y181218D01*
X160987Y183132D02*
X161077D01*
X162177Y173668D02*
X168809D01*
X162177D02*
Y181218D01*
X161077Y173668D02*
X162177D01*
X168000Y90181D02*
X168500D01*
X138441Y62584D02*
Y64336D01*
X140605Y66500D02*
X166311D01*
X138441Y64336D02*
X140605Y66500D01*
X181434Y100250D02*
X183000Y101816D01*
X176724Y100250D02*
X181434D01*
X183000Y101816D02*
Y104000D01*
X161250Y107750D02*
X171250Y97750D01*
X157276Y107750D02*
X161250D01*
X171250Y97750D02*
X176724D01*
X188319Y120972D02*
X188500D01*
X206369Y55441D02*
X220858Y69929D01*
X177371Y55441D02*
X206369D01*
X166311Y66500D02*
X177371Y55441D01*
X120000Y126000D02*
X144000D01*
X98422Y147578D02*
X120000Y126000D01*
X98422Y147578D02*
Y149492D01*
X81500Y59000D02*
X82000Y59500D01*
X74000Y59000D02*
X81500D01*
X162083Y148055D02*
X162638Y147500D01*
X86000Y80000D02*
X92500Y86500D01*
X66022Y85596D02*
X71618Y80000D01*
X65118Y86500D02*
X66022Y85596D01*
X66926Y86500D01*
X63000Y82574D02*
X66022Y85596D01*
X71618Y80000D02*
X86000D01*
X65118Y86500D02*
X66926D01*
X90548D02*
X92500D01*
X89500D02*
X90548D01*
X140000Y55500D02*
X166311D01*
X133937D02*
X140000D01*
X126853Y62584D02*
X133937Y55500D01*
X140000D02*
X143559Y59059D01*
Y62584D01*
X209500Y122004D02*
X220858Y110646D01*
Y69929D02*
Y110646D01*
X48500Y192500D02*
X52437Y188563D01*
X168809Y173668D02*
X169640Y172837D01*
X159109Y173668D02*
Y176432D01*
X157140Y178400D02*
X159109Y176432D01*
X157140Y178400D02*
Y183132D01*
X155172Y173668D02*
X157140D01*
X153203D02*
X155172D01*
X145471D02*
X153203D01*
X144640Y172837D02*
X145471Y173668D01*
X203546Y172837D02*
X203640Y172932D01*
X192140Y172837D02*
X203546D01*
X180865D02*
X192140D01*
X172991Y164963D02*
X180865Y172837D01*
X169640Y164963D02*
X172991D01*
X126559Y62584D02*
X126853D01*
X209000Y84500D02*
X209323Y84177D01*
X215500D01*
X176724Y97750D02*
X181197D01*
X188319Y104872D01*
Y114710D02*
X196193Y106836D01*
Y104872D02*
Y106836D01*
X188441Y97120D02*
X196193Y104872D01*
X188441Y94710D02*
Y97120D01*
X181500Y65000D02*
X181790Y64710D01*
X188441D01*
Y84710D02*
Y86011D01*
X181702Y92750D02*
X188441Y86011D01*
X176724Y92750D02*
X181702D01*
X176724Y86427D02*
Y90250D01*
Y86427D02*
X188441Y74710D01*
X205946Y92561D02*
X216486D01*
X198096Y84710D02*
X205946Y92561D01*
X196315Y84710D02*
X198096D01*
X215500Y76500D02*
X219257D01*
Y89789D01*
X216486Y92561D02*
X219257Y89789D01*
X200664Y79059D02*
X215500D01*
X196315Y74710D02*
X200664Y79059D01*
X196315Y84710D02*
Y94710D01*
Y64710D02*
Y74710D01*
X168000Y107000D02*
X172250Y102750D01*
X176724D01*
X162250Y100250D02*
X166000Y96500D01*
X157276Y100250D02*
X162250D01*
X176724Y95250D02*
Y97750D01*
X153378Y110250D02*
X157276D01*
X152628Y109500D02*
X153378Y110250D01*
X149000Y113500D02*
X149750Y112750D01*
X106292Y118000D02*
X171474D01*
X176724Y112750D01*
X144000Y109500D02*
X152628D01*
X142407Y105250D02*
X157276D01*
X137407Y110250D02*
X142407Y105250D01*
X106168Y110250D02*
X137407D01*
X102000Y102000D02*
X140000D01*
X82674Y121326D02*
X102000Y102000D01*
X149750Y112750D02*
X157276D01*
X74800Y149492D02*
X106292Y118000D01*
X66926Y149492D02*
X106168Y110250D01*
X98422Y149492D02*
Y153877D01*
X94553Y157746D02*
X98422Y153877D01*
X94553Y157746D02*
Y176128D01*
X92179Y178503D02*
X94553Y176128D01*
X78821Y178503D02*
X92179D01*
X74769Y174450D02*
X78821Y178503D01*
X70500Y174450D02*
X74769D01*
X130437Y181000D02*
Y188000D01*
Y174513D02*
Y181000D01*
Y174513D02*
X130500Y174450D01*
X69500Y181000D02*
X130437D01*
X60000Y171500D02*
X69500Y181000D01*
X60000Y144000D02*
Y171500D01*
X70500Y172000D02*
Y174450D01*
X60000Y144000D02*
X82674Y121326D01*
Y86500D02*
Y121326D01*
X66926Y160876D02*
X80500Y174450D01*
X66926Y149492D02*
Y160876D01*
X74800Y158750D02*
X90500Y174450D01*
X74800Y149492D02*
Y158750D01*
X120500Y174450D02*
X122044Y172906D01*
Y149492D02*
Y172906D01*
X114170Y149492D02*
X122044D01*
X106296Y160859D02*
X106437Y161000D01*
X106296Y149492D02*
Y160859D01*
X49000Y213000D02*
X54642D01*
X54996Y212646D01*
X52437Y184500D02*
Y188563D01*
X42004Y187059D02*
X44563Y184500D01*
X42004Y187059D02*
Y193354D01*
X141000Y70222D02*
Y75500D01*
X129604Y79059D02*
X138441Y70222D01*
X121611Y79059D02*
X129604D01*
X114170Y86500D02*
X121611Y79059D01*
X124000Y70222D02*
Y75000D01*
X106296Y85366D02*
Y86500D01*
Y85366D02*
X121441Y70222D01*
X63000Y74937D02*
Y82574D01*
Y67063D02*
X65063D01*
X74000Y76000D01*
X51937Y53000D02*
X54996Y49941D01*
Y42646D02*
Y49941D01*
X44063Y48437D02*
X48500Y44000D01*
X44063Y48437D02*
Y53000D01*
X216907Y38593D02*
X227223D01*
X212854Y42646D02*
X216907Y38593D01*
X212004Y42646D02*
X212854D01*
X214063Y48785D02*
X218848Y44000D01*
X214063Y48785D02*
Y51500D01*
X221937D02*
X224996Y48441D01*
Y42646D02*
Y48441D01*
X218500Y189437D02*
Y192500D01*
Y189437D02*
X223437Y184500D01*
X212004Y188059D02*
X215563Y184500D01*
X212004Y188059D02*
Y193354D01*
X219000Y213000D02*
X219354Y212646D01*
X224996D01*
X230681Y42051D02*
Y193968D01*
X212004Y212646D02*
X230681Y193968D01*
X212004Y23354D02*
X218500D01*
X42004Y212646D02*
X46650Y208000D01*
X210350D01*
X224996Y193354D01*
X227223Y38593D02*
X230681Y42051D01*
X220350Y28000D02*
X224996Y23354D01*
X56650Y28000D02*
X220350D01*
X42004Y42646D02*
X56650Y28000D01*
X121441Y57000D02*
Y62584D01*
X54996Y23354D02*
X60500D01*
X42004D02*
Y29496D01*
X42000Y29500D02*
X42004Y29496D01*
D20*
X161077Y173668D02*
D03*
X159109D02*
D03*
X157140D02*
D03*
X155172D02*
D03*
X153203D02*
D03*
Y183132D02*
D03*
X155172D02*
D03*
X157140D02*
D03*
X159109D02*
D03*
X161077D02*
D03*
D23*
X161140Y192900D02*
D03*
X153266D02*
D03*
D33*
X218848Y162500D02*
D03*
D34*
Y157500D02*
D03*
D39*
X176724Y112750D02*
D03*
Y110250D02*
D03*
Y107750D02*
D03*
Y105250D02*
D03*
Y102750D02*
D03*
Y100250D02*
D03*
Y97750D02*
D03*
Y95250D02*
D03*
Y92750D02*
D03*
Y90250D02*
D03*
X157276D02*
D03*
Y92750D02*
D03*
Y95250D02*
D03*
Y97750D02*
D03*
Y100250D02*
D03*
Y102750D02*
D03*
Y105250D02*
D03*
Y107750D02*
D03*
Y110250D02*
D03*
Y112750D02*
D03*
D40*
X184917Y139000D02*
D03*
D41*
X162083Y129945D02*
D03*
Y139000D02*
D03*
Y148055D02*
D03*
D42*
X63000Y67063D02*
D03*
Y74937D02*
D03*
X144640Y164963D02*
D03*
Y172837D02*
D03*
X192140Y164963D02*
D03*
Y172837D02*
D03*
X203640Y165058D02*
D03*
Y172932D02*
D03*
X169640Y164963D02*
D03*
Y172837D02*
D03*
X180865D02*
D03*
Y164963D02*
D03*
D43*
X51937Y53000D02*
D03*
X44063D02*
D03*
X221937Y51500D02*
D03*
X214063D02*
D03*
X215563Y184500D02*
D03*
X223437D02*
D03*
X44563D02*
D03*
X52437D02*
D03*
X122563Y188000D02*
D03*
X130437D02*
D03*
X98563Y161000D02*
D03*
X106437D02*
D03*
X196315Y84710D02*
D03*
X188441D02*
D03*
X196315Y74710D02*
D03*
X188441D02*
D03*
X188319Y114710D02*
D03*
X196193D02*
D03*
X196315Y94710D02*
D03*
X188441D02*
D03*
X196315Y64710D02*
D03*
X188441D02*
D03*
X196193Y104872D02*
D03*
X188319D02*
D03*
D44*
X157140Y178400D02*
D03*
D45*
X104500Y59000D02*
D03*
X74000D02*
D03*
X105000Y76000D02*
D03*
X74000D02*
D03*
D46*
X126559Y70222D02*
D03*
X124000D02*
D03*
X121441D02*
D03*
Y62584D02*
D03*
X124000D02*
D03*
X126559D02*
D03*
X143559Y70222D02*
D03*
X141000D02*
D03*
X138441D02*
D03*
Y62584D02*
D03*
X141000D02*
D03*
X143559D02*
D03*
D47*
X66926Y86500D02*
D03*
D48*
X74800D02*
D03*
X82674D02*
D03*
X90548D02*
D03*
X98422D02*
D03*
X106296D02*
D03*
X114170D02*
D03*
X122044D02*
D03*
X66926Y149492D02*
D03*
X74800D02*
D03*
X82674D02*
D03*
X90548D02*
D03*
X98422D02*
D03*
X106296D02*
D03*
X114170D02*
D03*
X122044D02*
D03*
D49*
X127918Y98382D02*
D03*
Y106256D02*
D03*
Y114130D02*
D03*
Y122004D02*
D03*
Y129878D02*
D03*
Y137752D02*
D03*
D50*
X226130Y82996D02*
D03*
Y75122D02*
D03*
D51*
X215500Y84177D02*
D03*
Y81618D02*
D03*
Y79059D02*
D03*
Y76500D02*
D03*
Y73941D02*
D03*
D52*
X212004Y193354D02*
D03*
X224996D02*
D03*
X212004Y212646D02*
D03*
X224996D02*
D03*
X42004Y193354D02*
D03*
X54996D02*
D03*
X42004Y212646D02*
D03*
X54996D02*
D03*
X224996Y42646D02*
D03*
X212004D02*
D03*
X224996Y23354D02*
D03*
X212004D02*
D03*
X54996Y42646D02*
D03*
X42004D02*
D03*
X54996Y23354D02*
D03*
X42004D02*
D03*
D53*
X67142Y30500D02*
X202500D01*
X54996Y42646D02*
X67142Y30500D01*
X145000Y202500D02*
X202858D01*
X51150D02*
X145000D01*
Y191335D02*
Y202500D01*
Y191335D02*
X152732Y183604D01*
X202858Y202500D02*
X212004Y193354D01*
X42004D02*
X51150Y202500D01*
D54*
X153266Y187745D02*
Y192900D01*
Y187745D02*
X155144Y185868D01*
Y183160D02*
Y185868D01*
Y183160D02*
X155172Y183132D01*
X161140Y187872D02*
Y192900D01*
X159137Y185868D02*
X161140Y187872D01*
X159137Y183160D02*
Y185868D01*
X159109Y183132D02*
X159137Y183160D01*
D55*
X228492Y92839D02*
X229161D01*
X223098Y65280D02*
X223768D01*
D56*
X209500Y132004D02*
D03*
Y122004D02*
D03*
X130500Y174450D02*
D03*
X120500D02*
D03*
X110500D02*
D03*
X100500D02*
D03*
X80500D02*
D03*
X90500D02*
D03*
D57*
X209500Y112004D02*
D03*
D58*
X70500Y174450D02*
D03*
D59*
X226130Y92839D02*
D03*
Y65280D02*
D03*
D60*
X215500Y88902D02*
D03*
Y69217D02*
D03*
D61*
X154000Y166000D02*
D03*
X169989Y123500D02*
D03*
X168500Y90181D02*
D03*
X174265Y64890D02*
D03*
X167765Y58474D02*
D03*
X188500Y120972D02*
D03*
X82000Y59500D02*
D03*
X172500Y147500D02*
D03*
X48500Y192500D02*
D03*
X209000Y84500D02*
D03*
X181500Y65000D02*
D03*
X168000Y107000D02*
D03*
X166000Y96500D02*
D03*
X149000Y113500D02*
D03*
X140000Y102000D02*
D03*
X144000Y109500D02*
D03*
Y126000D02*
D03*
X49000Y213000D02*
D03*
X141000Y75500D02*
D03*
X124000Y75000D02*
D03*
X48500Y44000D02*
D03*
X218848D02*
D03*
X218500Y192500D02*
D03*
X219000Y213000D02*
D03*
X218500Y23354D02*
D03*
X121441Y57000D02*
D03*
X60500Y23354D02*
D03*
X42000Y29500D02*
D03*
D62*
X189500Y191000D02*
D03*
Y45000D02*
D03*
X77500D02*
D03*
Y191000D02*
D03*
M02*
