M48
;Layer_Color=9474304
;FILE_FORMAT=2:5
INCH,TZ
;TYPE=PLATED
T1F00S00C0.01968
T2F00S00C0.02165
T3F00S00C0.02800
T4F00S00C0.03543
T5F00S00C0.11811
%
T01
X226130Y65280
Y92839
X218848Y157500
Y162500
T02
X215500Y69217
Y88902
T03
X42000Y29500
X48500Y44000
X60500Y23354
X82000Y59500
X121441Y57000
X124000Y75000
X141000Y75500
X140000Y102000
X144000Y109500
X149000Y113500
X144000Y126000
X169989Y123500
X168000Y107000
X166000Y96500
X168500Y90181
X174265Y64890
X181500Y65000
X167765Y58474
X218848Y44000
X218500Y23354
X209000Y84500
X188500Y120972
X172500Y147500
X218500Y192500
X219000Y213000
X154000Y166000
X48500Y192500
X49000Y213000
T04
X209500Y112004
Y122004
Y132004
X130500Y174450
X120500
X110500
X100500
X90500
X80500
X70500
T05
X77500Y45000
X189500
Y191000
X77500
M30
